<svg width="20" height="20" viewBox="0 0 20 20" fill="none" xmlns="http://www.w3.org/2000/svg">
<path d="M14.714 13.8807C13.9335 14.6612 12.3012 16.2935 11.1781 17.4166C10.5272 18.0675 9.47298 18.0678 8.82211 17.4169C7.71854 16.3134 6.11791 14.7127 5.28587 13.8807C2.68238 11.2772 2.68238 7.05612 5.28587 4.45262C7.88937 1.84913 12.1105 1.84913 14.714 4.45262C17.3175 7.05612 17.3175 11.2772 14.714 13.8807Z" stroke="#ACADB9" stroke-width="1.25" stroke-linecap="round" stroke-linejoin="round"/>
<path d="M12.4999 9.16667C12.4999 10.5474 11.3806 11.6667 9.99992 11.6667C8.61921 11.6667 7.49992 10.5474 7.49992 9.16667C7.49992 7.78595 8.61921 6.66667 9.99992 6.66667C11.3806 6.66667 12.4999 7.78595 12.4999 9.16667Z" stroke="#ACADB9" stroke-width="1.25" stroke-linecap="round" stroke-linejoin="round"/>
</svg>
